<svg width="111" height="110" viewBox="0 0 111 110" fill="none" xmlns="http://www.w3.org/2000/svg">
<path d="M62.8333 98.835H23.105C23.0264 98.8351 22.9486 98.8193 22.8762 98.7887C22.8038 98.7581 22.7383 98.7132 22.6835 98.6568C22.6288 98.6003 22.586 98.5335 22.5576 98.4602C22.5292 98.3869 22.5159 98.3086 22.5183 98.23V58.08C24.0381 58.7754 25.66 59.2211 27.3217 59.4001V93.5C27.3217 93.9863 27.5148 94.4526 27.8586 94.7964C28.2025 95.1402 28.6688 95.3334 29.155 95.3334H51.6317C52.1179 95.3334 52.5842 95.1402 52.928 94.7964C53.2718 94.4526 53.465 93.9863 53.465 93.5C53.465 93.0138 53.2718 92.5475 52.928 92.2037C52.5842 91.8599 52.1179 91.6667 51.6317 91.6667H30.915V59.4001C33.8416 59.0776 36.6249 57.963 38.9652 56.1764C41.3055 54.3897 43.1142 51.9986 44.1966 49.2605C45.2791 46.5223 45.5942 43.5408 45.1082 40.6369C44.6222 37.7329 43.3534 35.0165 41.4383 32.78H80.1583V57.4017C80.1583 57.8879 80.3515 58.3543 80.6953 58.6981C81.0391 59.0419 81.5054 59.2351 81.9917 59.2351C82.4779 59.2351 82.9442 59.0419 83.288 58.6981C83.6319 58.3543 83.825 57.8879 83.825 57.4017V30.9834C83.825 30.4972 83.6319 30.0308 83.288 29.687C82.9442 29.3432 82.4779 29.15 81.9917 29.15H37.1667C34.9505 27.8807 32.4628 27.16 29.9112 27.0484C27.3597 26.9368 24.8185 27.4374 22.5 28.5084V21.3767C22.4975 21.2981 22.5109 21.2199 22.5393 21.1466C22.5677 21.0733 22.6105 21.0064 22.6652 20.95C22.7199 20.8935 22.7854 20.8487 22.8578 20.8181C22.9302 20.7874 23.0081 20.7717 23.0867 20.7717H41.7317V23.8334C41.7317 24.3196 41.9248 24.7859 42.2686 25.1297C42.6125 25.4736 43.0788 25.6667 43.565 25.6667H67.5817C68.0679 25.6667 68.5342 25.4736 68.878 25.1297C69.2218 24.7859 69.415 24.3196 69.415 23.8334V20.7717H87.9683C88.0469 20.7717 88.1248 20.7874 88.1972 20.8181C88.2696 20.8487 88.3351 20.8935 88.3898 20.95C88.4445 21.0064 88.4873 21.0733 88.5157 21.1466C88.5441 21.2199 88.5575 21.2981 88.555 21.3767V59.125C88.555 59.6113 88.7482 60.0776 89.092 60.4214C89.4358 60.7652 89.9021 60.9584 90.3883 60.9584C90.8746 60.9584 91.3409 60.7652 91.6847 60.4214C92.0285 60.0776 92.2217 59.6113 92.2217 59.125V21.3767C92.2168 20.2647 91.773 19.1997 90.9867 18.4134C90.2004 17.6271 89.1353 17.1832 88.0233 17.1784H69.3417V16.5C69.3417 16.0138 69.1485 15.5475 68.8047 15.2037C68.4609 14.8599 67.9946 14.6667 67.5083 14.6667H63.3467V12.8334C63.3226 11.3906 62.7326 10.0151 61.7037 9.00342C60.6748 7.99171 59.2896 7.42485 57.8467 7.42505H53.135C51.6923 7.4491 50.3167 8.03916 49.305 9.06802C48.2933 10.0969 47.7265 11.4821 47.7267 12.925V14.7584H43.5283C43.0421 14.7584 42.5758 14.9515 42.232 15.2954C41.8882 15.6392 41.695 16.1055 41.695 16.5917V17.1967H23.105C22.5497 17.1895 21.9985 17.2919 21.4829 17.4983C20.9674 17.7047 20.4976 18.0108 20.1007 18.3992C19.7038 18.7876 19.3875 19.2506 19.17 19.7616C18.9525 20.2725 18.8381 20.8214 18.8333 21.3767V30.7084C16.9603 32.2279 15.4501 34.1462 14.4128 36.3236C13.3754 38.5009 12.8371 40.8824 12.8371 43.2942C12.8371 45.7061 13.3754 48.0875 14.4128 50.2648C15.4501 52.4422 16.9603 54.3606 18.8333 55.88V98.23C18.8333 99.3452 19.2751 100.415 20.0619 101.205C20.8487 101.995 21.9165 102.442 23.0317 102.447H62.8333C63.3196 102.447 63.7859 102.254 64.1297 101.91C64.4735 101.566 64.6667 101.1 64.6667 100.613C64.6667 100.127 64.4735 99.6608 64.1297 99.317C63.7859 98.9732 63.3196 98.78 62.8333 98.78V98.835ZM53.135 11.165H57.9383C58.4246 11.165 58.8909 11.3582 59.2347 11.702C59.5785 12.0458 59.7717 12.5122 59.7717 12.9984V14.8317H51.3383V12.9984C51.3382 12.5184 51.5264 12.0576 51.8623 11.7148C52.1982 11.372 52.6552 11.1746 53.135 11.165ZM45.325 18.3334H65.7483V22H45.325V18.3334ZM16.505 43.3034C16.5014 40.8095 17.2371 38.3705 18.6193 36.2946C20.0015 34.2188 21.968 32.5992 24.2703 31.6407C26.5726 30.6821 29.1074 30.4276 31.5544 30.9092C34.0013 31.3909 36.2506 32.5871 38.0178 34.3467C39.7851 36.1063 40.9911 38.3503 41.4834 40.7952C41.9758 43.24 41.7323 45.7759 40.7838 48.0824C39.8353 50.3888 38.2243 52.3624 36.1545 53.7536C34.0847 55.1447 31.6489 55.8911 29.155 55.8984C25.808 55.9033 22.596 54.5796 20.2242 52.2181C17.8523 49.8566 16.5147 46.6503 16.505 43.3034Z" fill="#845A88"/>
<path d="M83.55 65.615C80.899 65.628 78.2809 66.2029 75.8683 67.3017L75.5017 66.6784C75.2601 66.2688 74.8688 65.9691 74.4105 65.8425C73.9521 65.7159 73.4625 65.7724 73.045 66C69.8593 67.8543 67.2148 70.5106 65.375 73.7047C63.5351 76.8987 62.564 80.519 62.5583 84.205C62.5583 84.6913 62.7515 85.1576 63.0953 85.5014C63.4391 85.8452 63.9054 86.0384 64.3917 86.0384H65.07C65.4216 89.6259 66.8076 93.034 69.0596 95.8487C71.3116 98.6633 74.3326 100.763 77.7555 101.893C81.1785 103.024 84.856 103.135 88.3412 102.215C91.8264 101.294 94.9692 99.3814 97.3877 96.7085C99.8063 94.0357 101.396 90.7178 101.965 87.1583C102.534 83.5987 102.056 79.9506 100.59 76.6574C99.1247 73.3641 96.7341 70.5674 93.7091 68.6071C90.684 66.6468 87.1547 65.6074 83.55 65.615ZM73.3383 70.125L80.4333 82.5H66.2617C66.5062 80.0561 67.2627 77.691 68.482 75.5588C69.7013 73.4267 71.356 71.5752 73.3383 70.125ZM83.55 99.2384C79.8824 99.2334 76.3435 97.8862 73.601 95.4511C70.8585 93.0159 69.1022 89.6612 68.6633 86.02H83.55C83.8614 86.0099 84.165 85.9207 84.4324 85.7606C84.6997 85.6006 84.9218 85.3751 85.0777 85.1054C85.2337 84.8357 85.3183 84.5307 85.3237 84.2192C85.329 83.9077 85.2549 83.5999 85.1083 83.325L77.665 70.4917C79.7164 69.5848 81.945 69.149 84.1869 69.2163C86.4289 69.2836 88.6272 69.8524 90.6205 70.8807C92.6138 71.9091 94.3514 73.371 95.7056 75.159C97.0599 76.947 97.9963 79.0157 98.4461 81.2131C98.896 83.4105 98.8478 85.6807 98.3052 87.8571C97.7626 90.0334 96.7392 92.0605 95.3104 93.7895C93.8816 95.5184 92.0836 96.9053 90.0484 97.8483C88.0133 98.7912 85.7928 99.2662 83.55 99.2384Z" fill="#845A88"/>
<path d="M45.105 63.2317C44.7631 62.9013 44.3063 62.7166 43.8308 62.7166C43.3554 62.7166 42.8985 62.9013 42.5567 63.2317L37.1667 68.5484C36.8362 68.8902 36.6515 69.3471 36.6515 69.8225C36.6515 70.298 36.8362 70.7548 37.1667 71.0967C37.3299 71.2672 37.5264 71.4024 37.744 71.4939C37.9616 71.5853 38.1956 71.6311 38.4317 71.6284C38.9126 71.6263 39.3735 71.4354 39.715 71.0967L43.7483 67.0634L47.415 70.73C47.7569 71.0605 48.2137 71.2452 48.6892 71.2452C49.1646 71.2452 49.6215 71.0605 49.9633 70.73L56.875 63.8L60.0283 66.9534C60.3702 67.2838 60.827 67.4685 61.3025 67.4685C61.778 67.4685 62.2348 67.2838 62.5767 66.9534L73.8333 55.8617C74.1638 55.5198 74.3485 55.063 74.3485 54.5875C74.3485 54.1121 74.1638 53.6552 73.8333 53.3134C73.4915 52.9829 73.0346 52.7982 72.5592 52.7982C72.0837 52.7982 71.6269 52.9829 71.285 53.3134L61.4217 63.195L58.2683 60.0417C57.9265 59.7113 57.4696 59.5266 56.9942 59.5266C56.5187 59.5266 56.0619 59.7113 55.72 60.0417L48.79 66.9717L45.105 63.2317Z" fill="#845A88"/>
<path d="M24.205 45.0267C24.7532 45.3473 25.3602 45.5547 25.99 45.6366C26.6198 45.7185 27.2597 45.6732 27.8717 45.5034L31.355 44.5684C31.5084 44.5254 31.669 44.5146 31.8268 44.5367C31.9845 44.5588 32.136 44.6133 32.2717 44.6967C32.4094 44.7693 32.5298 44.8708 32.6248 44.9941C32.7197 45.1175 32.7868 45.26 32.8217 45.4117C32.9061 45.7205 32.8647 46.0501 32.7067 46.3284C32.5486 46.6067 32.2867 46.8111 31.9783 46.8967L26.7533 48.2901C26.3668 48.4372 26.0413 48.7107 25.8298 49.0662C25.6184 49.4217 25.5333 49.8383 25.5886 50.2482C25.6438 50.6582 25.836 51.0374 26.134 51.3243C26.432 51.6111 26.8183 51.7888 27.23 51.8284C27.3767 51.8284 29.43 51.2967 29.43 51.2967L29.595 51.8834C29.701 52.2617 29.9256 52.5959 30.2359 52.8368C30.5462 53.0778 30.9256 53.2127 31.3183 53.2217C31.4761 53.2484 31.6372 53.2484 31.795 53.2217C32.2489 53.089 32.6339 52.7859 32.8697 52.376C33.1054 51.966 33.1736 51.4808 33.06 51.0217L32.9133 50.4351C33.5295 50.2778 34.1083 49.9997 34.6161 49.617C35.124 49.2343 35.5508 48.7546 35.8718 48.2057C36.1928 47.6568 36.4016 47.0496 36.4861 46.4193C36.5706 45.789 36.5291 45.1483 36.3641 44.5342C36.199 43.9201 35.9137 43.3448 35.5246 42.8419C35.1355 42.3389 34.6504 41.9182 34.0975 41.6042C33.5445 41.2901 32.9347 41.089 32.3034 41.0125C31.6722 40.936 31.032 40.9856 30.42 41.1584L26.955 42.0934C26.6468 42.1773 26.318 42.1379 26.0383 41.9834C25.7629 41.8197 25.5597 41.5577 25.47 41.2501C25.3917 40.9414 25.4383 40.6143 25.5996 40.3398C25.7609 40.0652 26.0239 39.8653 26.3317 39.7834L31.5383 38.3717C31.9956 38.2428 32.385 37.9413 32.6244 37.531C32.8638 37.1206 32.9345 36.6332 32.8217 36.1717C32.764 35.9343 32.6595 35.7109 32.5142 35.5145C32.369 35.318 32.1859 35.1526 31.9758 35.0279C31.7658 34.9033 31.5329 34.8218 31.2909 34.7884C31.0489 34.755 30.8027 34.7703 30.5667 34.8334L28.8433 35.3101L28.6783 34.7234C28.4943 34.3359 28.1803 34.0253 27.7908 33.8455C27.4014 33.6657 26.9613 33.6281 26.547 33.7393C26.1328 33.8505 25.7706 34.1034 25.5236 34.4541C25.2766 34.8047 25.1603 35.2309 25.195 35.6584L25.36 36.2451C24.4424 36.4913 23.6185 37.0041 22.9924 37.7186C22.3663 38.4331 21.9661 39.3172 21.8425 40.2592C21.7188 41.2011 21.8773 42.1586 22.2978 43.0105C22.7184 43.8623 23.3821 44.5704 24.205 45.0451V45.0267Z" fill="#845A88"/>
<path d="M72.605 38.5H50.99C50.5038 38.5 50.0375 38.6932 49.6936 39.037C49.3498 39.3808 49.1567 39.8471 49.1567 40.3333C49.1567 40.8196 49.3498 41.2859 49.6936 41.6297C50.0375 41.9735 50.5038 42.1667 50.99 42.1667H72.605C73.0912 42.1667 73.5576 41.9735 73.9014 41.6297C74.2452 41.2859 74.4383 40.8196 74.4383 40.3333C74.4383 39.8471 74.2452 39.3808 73.9014 39.037C73.5576 38.6932 73.0912 38.5 72.605 38.5Z" fill="#845A88"/>
<path d="M72.605 44.495H59.3867C58.9004 44.495 58.4341 44.6881 58.0903 45.032C57.7465 45.3758 57.5533 45.8421 57.5533 46.3283C57.5533 46.8146 57.7465 47.2809 58.0903 47.6247C58.4341 47.9685 58.9004 48.1617 59.3867 48.1617H72.605C73.0912 48.1617 73.5576 47.9685 73.9014 47.6247C74.2452 47.2809 74.4383 46.8146 74.4383 46.3283C74.4383 45.8421 74.2452 45.3758 73.9014 45.032C73.5576 44.6881 73.0912 44.495 72.605 44.495Z" fill="#845A88"/>
</svg>
