<svg width="51" height="22" viewBox="0 0 51 22" fill="none" xmlns="http://www.w3.org/2000/svg">
<rect width="21.6364" height="21.6364" rx="10.8182" fill="#F3D152"/>
<path d="M27.4021 21.6364C25.9249 21.6364 24.7273 20.4388 24.7273 18.9615L24.7273 2.67482C24.7273 1.19755 25.9249 -1.20618e-05 27.4021 -1.20618e-05C32.3263 -1.20618e-05 36.3182 3.99186 36.3182 8.91607V12.7203C36.3182 17.6445 32.3263 21.6364 27.4021 21.6364Z" fill="#B488C0"/>
<path d="M42.0839 21.6364C40.6067 21.6364 39.4091 20.4388 39.4091 18.9615L39.4091 2.67482C39.4091 1.19755 40.6067 -1.20618e-05 42.0839 -1.20618e-05C47.0082 -1.20618e-05 51 3.99186 51 8.91607V12.7203C51 17.6445 47.0082 21.6364 42.0839 21.6364Z" fill="#B488C0"/>
</svg>
