<svg width="104" height="103" viewBox="0 0 104 103" fill="none" xmlns="http://www.w3.org/2000/svg">
<path d="M73.4584 53.6459H77.75C81.1647 53.6459 84.4395 55.0023 86.854 57.4169C89.2686 59.8314 90.625 63.1062 90.625 66.5209C90.625 69.9355 89.2686 73.2103 86.854 75.6249C84.4395 78.0394 81.1647 79.3959 77.75 79.3959H73.4584" stroke="#845A88" stroke-width="4" stroke-linecap="round" stroke-linejoin="round"/>
<path d="M73.4583 92.2708C73.4583 94.5473 72.554 96.7305 70.9443 98.3402C69.3346 99.9499 67.1514 100.854 64.875 100.854H26.25C23.9735 100.854 21.7903 99.9499 20.1806 98.3402C18.5709 96.7305 17.6666 94.5473 17.6666 92.2708V47.2083C17.6666 46.6392 17.8927 46.0934 18.2951 45.691C18.6975 45.2886 19.2433 45.0625 19.8125 45.0625H71.3125C71.8816 45.0625 72.4274 45.2886 72.8298 45.691C73.2322 46.0934 73.4583 46.6392 73.4583 47.2083V92.2708Z" stroke="#845A88" stroke-width="4" stroke-linecap="round" stroke-linejoin="round"/>
<path d="M72.9477 2.42053C77.381 9.17562 70.8018 12.8793 69.2869 16.5058C68.884 17.348 68.6632 18.2657 68.6389 19.199C68.6145 20.1324 68.7871 21.0603 69.1455 21.9224C69.5039 22.7846 70.0399 23.5615 70.7187 24.2025C71.3975 24.8435 72.2038 25.3343 73.085 25.6427C85.5308 30.9 89.2388 6.36028 72.9477 2.42053Z" stroke="#845A88" stroke-width="4" stroke-linecap="round" stroke-linejoin="round"/>
<path d="M60.5834 45.0626L71.7803 24.9475" stroke="#845A88" stroke-width="4" stroke-linecap="round" stroke-linejoin="round"/>
<path d="M76.2093 26.4196L69.1666 45.0626" stroke="#845A88" stroke-width="4" stroke-linecap="round" stroke-linejoin="round"/>
<path d="M34.8333 45.0625H21.9583L15.5208 32.1875L13.375 19.3125L24.1042 25.75L34.8333 45.0625Z" stroke="#845A88" stroke-width="4" stroke-linecap="round" stroke-linejoin="round"/>
<path d="M15.5209 32.1875L24.1042 25.75" stroke="#845A88" stroke-width="4" stroke-linecap="round" stroke-linejoin="round"/>
<path d="M56.2917 4.29171C56.2917 3.7226 56.0656 3.1768 55.6632 2.77437C55.2607 2.37195 54.7149 2.14587 54.1458 2.14587H41.2708C40.7017 2.14587 40.1559 2.37195 39.7535 2.77437C39.3511 3.1768 39.125 3.7226 39.125 4.29171V45.0625H56.2917V4.29171Z" stroke="#845A88" stroke-width="4" stroke-linecap="round" stroke-linejoin="round"/>
<path d="M56.2917 10.7291H47.7084" stroke="#845A88" stroke-width="4" stroke-linecap="round" stroke-linejoin="round"/>
<path d="M56.2917 19.3125H52" stroke="#845A88" stroke-width="4" stroke-linecap="round" stroke-linejoin="round"/>
<path d="M56.2917 27.8959H47.7084" stroke="#845A88" stroke-width="4" stroke-linecap="round" stroke-linejoin="round"/>
<path d="M56.2917 36.4791H52" stroke="#845A88" stroke-width="4" stroke-linecap="round" stroke-linejoin="round"/>
</svg>
