<svg width="121" height="120" viewBox="0 0 121 120" fill="none" xmlns="http://www.w3.org/2000/svg">
<path d="M19.1367 33.5881C20.2399 33.5881 21.1342 32.6938 21.1342 31.5906C21.1342 30.4875 20.2399 29.5931 19.1367 29.5931C18.0335 29.5931 17.1392 30.4875 17.1392 31.5906C17.1392 32.6938 18.0335 33.5881 19.1367 33.5881Z" fill="#845A88"/>
<path d="M32.46 33.5881C33.5632 33.5881 34.4575 32.6938 34.4575 31.5906C34.4575 30.4875 33.5632 29.5931 32.46 29.5931C31.3568 29.5931 30.4625 30.4875 30.4625 31.5906C30.4625 32.6938 31.3568 33.5881 32.46 33.5881Z" fill="#845A88"/>
<path d="M25.8083 33.5881C26.9115 33.5881 27.8058 32.6938 27.8058 31.5906C27.8058 30.4875 26.9115 29.5931 25.8083 29.5931C24.7051 29.5931 23.8108 30.4875 23.8108 31.5906C23.8108 32.6938 24.7051 33.5881 25.8083 33.5881Z" fill="#845A88"/>
<path d="M40.45 60.5744L46.4425 54.5819C46.8186 54.2057 47.0299 53.6956 47.0299 53.1636C47.0299 52.6317 46.8186 52.1215 46.4425 51.7454C46.0664 51.3693 45.5562 51.158 45.0243 51.158C44.4923 51.158 43.9822 51.3693 43.606 51.7454L36.1753 59.1961C35.8033 59.5703 35.5945 60.0766 35.5945 60.6043C35.5945 61.132 35.8033 61.6383 36.1753 62.0126L43.606 69.4632C43.7917 69.6505 44.0127 69.7991 44.2561 69.9005C44.4995 70.0019 44.7606 70.0541 45.0243 70.0541C45.288 70.0541 45.549 70.0019 45.7925 69.9005C46.0359 69.7991 46.2568 69.6505 46.4425 69.4632C46.8145 69.089 47.0233 68.5827 47.0233 68.055C47.0233 67.5273 46.8145 67.021 46.4425 66.6468L40.45 60.5744Z" fill="#845A88"/>
<path d="M69.0541 69.4233C69.4284 69.7954 69.9347 70.0042 70.4624 70.0042C70.9901 70.0042 71.4963 69.7954 71.8706 69.4233L79.3213 62.0725C79.6933 61.6983 79.9021 61.192 79.9021 60.6643C79.9021 60.1366 79.6933 59.6303 79.3213 59.256L71.8706 51.8054C71.4945 51.4319 70.9854 51.2231 70.4553 51.225C69.9252 51.2269 69.4176 51.4392 69.0441 51.8154C68.6707 52.1915 68.4619 52.7006 68.4638 53.2307C68.4656 53.7607 68.678 54.2683 69.0541 54.6418L75.0466 60.6343L69.0541 66.6268C68.6881 67.0002 68.4831 67.5022 68.4831 68.0251C68.4831 68.5479 68.6881 69.0499 69.0541 69.4233Z" fill="#845A88"/>
<path d="M62.4225 52.3846C62.1946 52.2525 61.9427 52.1668 61.6815 52.1325C61.4202 52.0982 61.1548 52.1159 60.9004 52.1846C60.6461 52.2533 60.4078 52.3716 60.1994 52.5328C59.991 52.6939 59.8165 52.8947 59.686 53.1236L52.3152 66.0674C52.1707 66.2948 52.0736 66.549 52.0299 66.8149C51.9862 67.0807 51.9967 67.3526 52.0608 67.6143C52.1249 67.8759 52.2412 68.1219 52.4029 68.3375C52.5645 68.553 52.768 68.7336 53.0013 68.8684C53.2345 69.0032 53.4926 69.0895 53.7601 69.122C54.0275 69.1545 54.2987 69.1325 54.5575 69.0574C54.8162 68.9824 55.0571 68.8558 55.2656 68.6852C55.4741 68.5146 55.646 68.3036 55.7709 68.0649L63.2215 55.1811C63.3609 54.947 63.451 54.6869 63.4861 54.4168C63.5213 54.1467 63.5008 53.8722 63.426 53.6103C63.3511 53.3483 63.2235 53.1045 63.0509 52.8937C62.8784 52.6829 62.6645 52.5096 62.4225 52.3846Z" fill="#845A88"/>
<path d="M112.08 80.0501C111.963 80.0492 111.848 80.0124 111.751 79.9445C111.655 79.8767 111.582 79.7811 111.541 79.6705C110.746 77.5797 109.62 75.6305 108.205 73.8978C108.138 73.8009 108.102 73.6859 108.102 73.5682C108.102 73.4504 108.138 73.3354 108.205 73.2386C108.814 72.1841 108.979 70.9314 108.664 69.7553C108.349 68.5793 107.581 67.5763 106.527 66.9664L105.029 66.0676V29.5932C105.029 28.0039 104.398 26.4797 103.274 25.3559C102.15 24.2321 100.626 23.6007 99.0367 23.6007H16.48C14.8907 23.6007 13.3665 24.2321 12.2427 25.3559C11.1188 26.4797 10.4875 28.0039 10.4875 29.5932V80.2099C10.4927 81.4426 10.9848 82.6234 11.8565 83.4951C12.7282 84.3667 13.9089 84.8588 15.1417 84.864H42.4475L40.45 92.2548H37.7933C35.8477 92.2561 33.9594 92.9134 32.4335 94.1203C30.9076 95.3273 29.8332 97.0135 29.3838 98.9065H24.47C23.9402 98.9065 23.4321 99.1169 23.0575 99.4915C22.6829 99.8661 22.4725 100.374 22.4725 100.904C22.4725 101.434 22.6829 101.942 23.0575 102.316C23.4321 102.691 23.9402 102.901 24.47 102.901H75.3463C75.3125 103.379 75.3597 103.858 75.4861 104.32C75.6359 104.906 75.9024 105.455 76.2697 105.936C76.6369 106.416 77.0974 106.818 77.6235 107.116L81.8382 109.553C82.3615 109.854 82.9388 110.048 83.5373 110.125C84.1357 110.202 84.7435 110.161 85.326 110.003C85.9084 109.846 86.4541 109.575 86.9318 109.206C87.4096 108.838 87.81 108.379 88.1103 107.855C88.1751 107.753 88.2682 107.673 88.3782 107.623C88.4882 107.573 88.6103 107.557 88.7296 107.576C90.9238 107.955 93.167 107.955 95.3613 107.576C95.4828 107.556 95.6074 107.574 95.7181 107.628C95.8289 107.681 95.9205 107.768 95.9805 107.875C96.3876 108.572 96.9712 109.15 97.6726 109.55C98.3739 109.949 99.1682 110.157 99.9755 110.152C100.781 110.16 101.574 109.953 102.273 109.553L106.487 107.116C107.011 106.814 107.469 106.412 107.836 105.932C108.203 105.452 108.471 104.904 108.625 104.32C108.784 103.739 108.825 103.132 108.746 102.535C108.667 101.939 108.47 101.363 108.165 100.844C108.097 100.744 108.06 100.626 108.06 100.504C108.06 100.383 108.097 100.265 108.165 100.165C109.575 98.4365 110.702 96.4946 111.501 94.4121C111.539 94.2998 111.612 94.2026 111.709 94.1344C111.806 94.0662 111.922 94.0305 112.04 94.0326C113.257 94.0273 114.423 93.5416 115.283 92.6811C116.144 91.8207 116.629 90.6552 116.635 89.4383V84.5644C116.614 83.3667 116.126 82.2245 115.275 81.3812C114.425 80.538 113.278 80.0603 112.08 80.0501ZM14.4825 29.5932C14.4825 29.0634 14.6929 28.5554 15.0675 28.1808C15.4421 27.8062 15.9502 27.5957 16.48 27.5957H99.0367C99.5664 27.5957 100.075 27.8062 100.449 28.1808C100.824 28.5554 101.034 29.0634 101.034 29.5932V35.5857H14.4825V29.5932ZM15.1417 80.869C15.0551 80.869 14.9694 80.852 14.8894 80.8189C14.8094 80.7857 14.7368 80.7372 14.6756 80.676C14.6143 80.6148 14.5658 80.5421 14.5327 80.4621C14.4995 80.3821 14.4825 80.2964 14.4825 80.2099V39.5807H101.034V64.0701C100.089 63.819 99.0881 63.8775 98.1786 64.237C97.269 64.5965 96.4986 65.2381 95.9805 66.0676C95.9183 66.1661 95.8279 66.2436 95.7209 66.2899C95.614 66.3362 95.4957 66.3492 95.3812 66.3272C93.1853 65.9676 90.9455 65.9676 88.7495 66.3272C88.635 66.3522 88.5156 66.3405 88.4081 66.2939C88.3006 66.2474 88.2104 66.1682 88.1503 66.0676C87.8502 65.5439 87.4495 65.0848 86.9712 64.7167C86.4929 64.3486 85.9465 64.0788 85.3635 63.9229C84.7805 63.7669 84.1724 63.7278 83.5742 63.808C82.976 63.8881 82.3996 64.0858 81.8781 64.3897L77.6634 66.8266C77.1387 67.1218 76.6789 67.5199 76.3117 67.997C75.9444 68.474 75.6772 69.0203 75.5261 69.6031C75.2067 70.7808 75.3646 72.0368 75.9655 73.0988C76.0384 73.1932 76.078 73.3091 76.078 73.4283C76.078 73.5476 76.0384 73.6635 75.9655 73.7579C74.5509 75.4906 73.4245 77.4399 72.6297 79.5307C72.5891 79.6413 72.5157 79.7369 72.4193 79.8047C72.323 79.8725 72.2082 79.9093 72.0904 79.9102C71.112 79.9116 70.1599 80.2267 69.3738 80.8091L15.1417 80.869ZM68.415 92.2548H44.445L46.4425 84.864H67.4162V89.4383C67.429 90.4617 67.7802 91.452 68.415 92.2548ZM37.8133 96.2498H73.3688C73.8254 97.1707 74.346 98.0584 74.9268 98.9065H33.5986C33.9757 98.1128 34.5697 97.4422 35.3121 96.972C36.0544 96.5019 36.9146 96.2515 37.7933 96.2498H37.8133ZM112.68 89.4383C112.68 89.5972 112.616 89.7497 112.504 89.862C112.392 89.9744 112.239 90.0376 112.08 90.0376C111.15 90.0399 110.242 90.3234 109.475 90.851C108.709 91.3786 108.12 92.1255 107.786 92.9939C107.147 94.678 106.244 96.2492 105.109 97.648C104.524 98.3707 104.171 99.2532 104.096 100.18C104.021 101.107 104.228 102.034 104.69 102.842C104.722 102.91 104.738 102.985 104.738 103.061C104.738 103.137 104.722 103.212 104.69 103.281C104.672 103.36 104.638 103.435 104.59 103.5C104.542 103.566 104.481 103.62 104.41 103.661L100.255 106.018C100.186 106.056 100.109 106.081 100.03 106.089C99.9516 106.098 99.8717 106.091 99.7955 106.069C99.7193 106.047 99.6483 106.009 99.5866 105.959C99.5249 105.91 99.4738 105.848 99.4362 105.778C98.9639 104.973 98.2586 104.33 97.4134 103.934C96.5682 103.538 95.6228 103.408 94.7021 103.561C92.9436 103.86 91.1472 103.86 89.3887 103.561C88.4659 103.41 87.5191 103.543 86.6736 103.943C85.8282 104.342 85.1241 104.989 84.6547 105.798C84.5717 105.932 84.4408 106.029 84.2887 106.07C84.1365 106.111 83.9745 106.092 83.8357 106.018L79.621 103.581C79.5503 103.54 79.489 103.486 79.4408 103.421C79.3926 103.355 79.3587 103.28 79.3413 103.201C79.3092 103.132 79.2925 103.057 79.2925 102.981C79.2925 102.905 79.3092 102.83 79.3413 102.762C79.7974 101.953 80.0012 101.026 79.9264 100.101C79.8517 99.1752 79.5018 98.2932 78.9218 97.5681C77.7771 96.1729 76.8664 94.601 76.2252 92.914C75.8902 92.0685 75.3097 91.3427 74.5585 90.8301C73.8073 90.3174 72.9199 90.0414 72.0105 90.0376C71.8516 90.0376 71.6991 89.9744 71.5868 89.862C71.4744 89.7497 71.4112 89.5972 71.4112 89.4383V84.5644C71.4084 84.485 71.422 84.4058 71.4512 84.3318C71.4803 84.2579 71.5243 84.1907 71.5805 84.1345C71.6368 84.0783 71.7039 84.0342 71.7779 84.0051C71.8519 83.976 71.931 83.9624 72.0105 83.9652C72.9382 83.9616 73.843 83.6773 74.606 83.1496C75.369 82.6219 75.9544 81.8756 76.2851 81.0089C76.9217 79.3196 77.8329 77.7471 78.9818 76.3547C79.5618 75.6296 79.9116 74.7476 79.9864 73.8221C80.0611 72.8966 79.8573 71.9699 79.4012 71.1612C79.3687 71.089 79.3519 71.0107 79.3519 70.9315C79.3519 70.8523 79.3687 70.774 79.4012 70.7018C79.4175 70.6245 79.4511 70.552 79.4995 70.4897C79.548 70.4274 79.61 70.3769 79.6809 70.3422L83.8956 67.9053C83.9936 67.878 84.0972 67.878 84.1952 67.9053C84.2952 67.9065 84.3932 67.9328 84.4805 67.9816C84.5677 68.0305 84.6413 68.1003 84.6946 68.1849C85.1662 68.9916 85.8706 69.6369 86.7154 70.0362C87.5602 70.4354 88.506 70.57 89.4287 70.4221C91.1871 70.1226 92.9836 70.1226 94.742 70.4221C95.6708 70.5475 96.6158 70.3896 97.4534 69.9691C98.2909 69.5485 98.982 68.8849 99.4362 68.0651C99.4752 67.9992 99.5269 67.9417 99.5884 67.8959C99.6498 67.8502 99.7197 67.817 99.794 67.7985C99.8683 67.7799 99.9455 67.7762 100.021 67.7877C100.097 67.7992 100.17 67.8256 100.235 67.8653L104.45 70.3023C104.521 70.337 104.583 70.3874 104.631 70.4497C104.68 70.512 104.713 70.5846 104.73 70.6618C104.762 70.734 104.779 70.8123 104.779 70.8915C104.779 70.9707 104.762 71.049 104.73 71.1212C104.27 71.9254 104.064 72.8497 104.139 73.7729C104.214 74.6962 104.566 75.5752 105.149 76.2948C106.284 77.7007 107.188 79.2785 107.826 80.9689C108.141 81.8518 108.716 82.6184 109.475 83.1676C110.235 83.7168 111.143 84.0228 112.08 84.0451C112.16 84.0423 112.239 84.0559 112.313 84.085C112.387 84.1141 112.454 84.1582 112.51 84.2144C112.566 84.2706 112.611 84.3378 112.64 84.4117C112.669 84.4857 112.682 84.5649 112.68 84.6443V89.4383Z" fill="#845A88"/>
<path d="M92.0454 77.9326C90.2518 77.9326 88.4985 78.4645 87.0071 79.461C85.5158 80.4574 84.3534 81.8738 83.6671 83.5308C82.9807 85.1879 82.8011 87.0113 83.151 88.7705C83.5009 90.5296 84.3646 92.1455 85.6329 93.4138C86.9012 94.682 88.517 95.5458 90.2762 95.8957C92.0353 96.2456 93.8587 96.066 95.5158 95.3796C97.1729 94.6932 98.5892 93.5309 99.5857 92.0395C100.582 90.5482 101.114 88.7949 101.114 87.0013C101.114 84.5961 100.159 82.2895 98.4579 80.5888C96.7572 78.8881 94.4506 77.9326 92.0454 77.9326ZM92.0454 92.0749C91.0419 92.0749 90.061 91.7774 89.2266 91.2199C88.3923 90.6624 87.742 89.87 87.358 88.9429C86.9739 88.0158 86.8735 86.9956 87.0692 86.0114C87.265 85.0273 87.7482 84.1232 88.4578 83.4137C89.1673 82.7041 90.0714 82.2209 91.0556 82.0251C92.0398 81.8293 93.0599 81.9298 93.987 82.3138C94.9141 82.6978 95.7065 83.3481 96.264 84.1825C96.8215 85.0169 97.119 85.9978 97.119 87.0013C97.1085 88.3399 96.5693 89.6202 95.619 90.5631C94.6686 91.506 93.3841 92.035 92.0454 92.035V92.0749Z" fill="#845A88"/>
</svg>
