<svg width="1059" height="600" viewBox="0 0 1059 600" fill="none" xmlns="http://www.w3.org/2000/svg">
<path d="M348.309 128.072C359.838 93.4866 365.602 76.1938 373.459 70.5311C383.934 62.9808 398.066 62.9808 408.541 70.5311C416.398 76.1938 422.162 93.4866 433.691 128.072L486.257 285.77C487.821 290.462 488.602 292.807 488.99 295.195C489.506 298.377 489.506 301.623 488.99 304.805C488.602 307.193 487.821 309.538 486.257 314.23L433.691 471.928C422.162 506.513 416.398 523.806 408.541 529.469C398.066 537.019 383.934 537.019 373.459 529.469C365.602 523.806 359.838 506.513 348.309 471.928L295.743 314.23C294.179 309.538 293.398 307.193 293.01 304.805C292.494 301.623 292.494 298.377 293.01 295.195C293.398 292.807 294.179 290.462 295.743 285.77L348.309 128.072Z" fill="#0B0B0B"/>
<path d="M523.865 212.359C535.424 181.536 541.203 166.125 548.912 160.782C559.191 153.659 572.809 153.659 583.088 160.782C590.797 166.125 596.576 181.536 608.135 212.359L635.075 284.199C637.023 289.395 637.997 291.993 638.479 294.647C639.12 298.187 639.12 301.813 638.479 305.353C637.997 308.007 637.023 310.605 635.075 315.801L608.135 387.641C596.576 418.464 590.797 433.875 583.088 439.218C572.809 446.341 559.191 446.341 548.912 439.218C541.203 433.875 535.424 418.464 523.865 387.641L496.925 315.801C494.977 310.605 494.003 308.007 493.521 305.353C492.88 301.813 492.88 298.187 493.521 294.647C494.003 291.993 494.977 289.395 496.925 284.199L523.865 212.359Z" fill="#0B0B0B"/>
<path d="M753.865 212.359C765.424 181.536 771.203 166.125 778.912 160.782C789.191 153.659 802.809 153.659 813.088 160.782C820.797 166.125 826.576 181.536 838.135 212.359L865.075 284.199C867.023 289.395 867.997 291.993 868.479 294.647C869.12 298.187 869.12 301.813 868.479 305.353C867.997 308.007 867.023 310.605 865.075 315.801L838.135 387.641C826.576 418.464 820.797 433.875 813.088 439.218C802.809 446.341 789.191 446.341 778.912 439.218C771.203 433.875 765.424 418.464 753.865 387.641L726.925 315.801C724.977 310.605 724.003 308.007 723.521 305.353C722.88 301.813 722.88 298.187 723.521 294.647C724.003 291.993 724.977 289.395 726.925 284.199L753.865 212.359Z" fill="#0B0B0B"/>
<path d="M890.439 256.262C896.212 243.273 899.098 236.778 902.826 234.356C907.797 231.126 914.203 231.126 919.174 234.356C922.902 236.778 925.788 243.273 931.561 256.262L946.939 290.862C948.267 293.852 948.932 295.346 949.258 296.886C949.694 298.939 949.694 301.061 949.258 303.114C948.932 304.654 948.267 306.148 946.939 309.138L931.561 343.738C925.788 356.727 922.902 363.222 919.174 365.644C914.203 368.874 907.797 368.874 902.826 365.644C899.098 363.222 896.212 356.727 890.439 343.738L875.061 309.138C873.733 306.148 873.068 304.654 872.742 303.114C872.306 301.061 872.306 298.939 872.742 296.886C873.068 295.346 873.733 293.852 875.061 290.862L890.439 256.262Z" fill="#0B0B0B"/>
<path d="M173.865 212.359C185.424 181.536 191.203 166.125 198.912 160.782C209.191 153.659 222.809 153.659 233.088 160.782C240.797 166.125 246.576 181.536 258.135 212.359L285.075 284.199C287.023 289.395 287.997 291.993 288.479 294.647C289.12 298.187 289.12 301.813 288.479 305.353C287.997 308.007 287.023 310.605 285.075 315.801L258.135 387.641C246.576 418.464 240.797 433.875 233.088 439.218C222.809 446.341 209.191 446.341 198.912 439.218C191.203 433.875 185.424 418.464 173.865 387.641L146.925 315.801C144.977 310.605 144.003 308.007 143.521 305.353C142.88 301.813 142.88 298.187 143.521 294.647C144.003 291.993 144.977 289.395 146.925 284.199L173.865 212.359Z" fill="#0B0B0B"/>
<path d="M10 300H1048.5" stroke="#0B0B0B" stroke-width="20" stroke-linecap="round"/>
</svg>
